<?xml version="1.0" encoding="UTF-8"?>
<svg xmlns="http://www.w3.org/2000/svg" viewBox="0 0 300 300" width="300" height="300">
  <defs>
    <linearGradient id="google-grad" x1="0%" y1="0%" x2="0%" y2="100%">
      <stop offset="0%" stop-color="#4285f4"/>
      <stop offset="33%" stop-color="#ea4335"/>
      <stop offset="66%" stop-color="#fbbc04"/>
      <stop offset="100%" stop-color="#34a853"/>
    </linearGradient>
  </defs>

  <!-- Sticker background circle -->
  <circle cx="150" cy="150" r="148" fill="white" stroke="#e0e0e0" stroke-width="2"/>

  <!-- DNA helix icon in Google colors (centered, upper portion) -->
  <g transform="translate(115, 20) scale(0.14)">
    <path fill="url(#google-grad)" fill-rule="nonzero" d="M115.82 496.61c16.08,-21.9 23.85,-41.68 27.08,-62.84 2.24,-14.62 2.4,-30.2 1.65,-47.69l8.78 0.45 0 -0.05c5.71,0.41 11.56,0.59 17.29,0.88l0.53 0.02c0.7,18.07 0.42,34.48 -2.02,50.43 -3.88,25.36 -13.04,48.86 -31.93,74.59l-21.38 -15.79zm-46.9 -123.72l59.4 59.4 -5.01 23.84 -76.66 -76.66c-10.51,4.1 -20.72,9.65 -30.56,17.11l-16.09 -21.08c49.36,-37.43 102.43,-34.69 155.59,-31.95 6,0.31 12,0.62 16.82,0.83 21.05,0.9 41.94,1.07 61.99,-2.26l-52.97 -52.97 5 -23.85 71.12 71.11c14.12,-4.75 27.91,-11.99 41.25,-22.85l-99.68 -99.67c-17.99,19.58 -26.37,41.02 -29.83,63.81 -2.41,15.85 -2.49,32.61 -1.73,49.96l-10.21 -0.52c-0.58,-0.06 -1.16,-0.09 -1.76,-0.09 -4.88,-0.25 -9.75,-0.5 -14.63,-0.72 -0.72,-17.93 -0.51,-35.48 2.1,-52.67 4.3,-28.35 15.02,-55.1 38.41,-79.69 24.96,-26.25 51.67,-39.99 79.32,-46.87 21.97,-5.47 44.11,-6.51 66.29,-6.09 0.31,5.24 0.67,10.62 1.06,16.17 0.25,3.49 0.49,6.96 0.72,10.42 -16.87,-0.4 -33.55,0.02 -49.68,2.74l54.11 54.11 -5.01 23.84 -72.21 -72.21c-14.44,4.9 -28.55,12.41 -42.17,23.74l99.82 99.82c18.71,-19.89 27.35,-41.71 30.88,-64.93 3.72,-24.46 1.9,-51.11 -0.04,-78.72 -2.19,-31.17 -3.56,-56.83 0.2,-81.4 3.88,-25.35 13.04,-48.86 31.93,-74.59l21.37 15.8c-16.07,21.9 -23.84,41.68 -27.08,62.83 -3.35,21.93 -2.04,46.04 0.02,75.45 2.05,29.19 3.97,57.37 -0.17,84.67 -4.31,28.35 -15.02,55.09 -38.41,79.69 -24.96,26.25 -51.67,39.99 -79.32,46.87 -27.09,6.74 -54.43,6.76 -81.79,5.59 -6.48,-0.28 -11.8,-0.55 -17.11,-0.83 -28.93,-1.49 -57.83,-2.98 -85.28,2.82zm373.73 -232.9l-57.36 -57.36 5.01 -23.84 74.92 74.92c11.21,-4.17 22.11,-9.95 32.58,-17.89l16.09 21.09c-39.99,30.31 -82.39,34.28 -125.31,33.23 -0.36,-5.72 -0.76,-11.46 -1.16,-17.25 -0.23,-3.19 -0.44,-6.31 -0.64,-9.38 18.96,0.52 37.72,0.04 55.87,-3.52z"/>
  </g>

  <!-- "FoldRun" text matching Cloud Run website typography -->
  <text x="150" y="120" text-anchor="middle" font-family="Google Sans, Product Sans, Roboto, Arial, sans-serif" font-size="36" font-weight="400" fill="#202124" letter-spacing="-0.3">FoldRun</text>

  <!-- Tagline -->
  <text x="150" y="143" text-anchor="middle" font-family="Google Sans, Product Sans, Roboto, Arial, sans-serif" font-size="11" fill="#5f6368">Protein Structure Prediction</text>

  <!-- QR Code (scaled and centered at bottom) -->
  <g transform="translate(90, 155) scale(3.636)">
    <path d="M2,2H3V3H2zM3,2H4V3H3zM4,2H5V3H4zM5,2H6V3H5zM6,2H7V3H6zM7,2H8V3H7zM8,2H9V3H8zM10,2H11V3H10zM11,2H12V3H11zM13,2H14V3H13zM14,2H15V3H14zM17,2H18V3H17zM18,2H19V3H18zM19,2H20V3H19zM20,2H21V3H20zM21,2H22V3H21zM24,2H25V3H24zM25,2H26V3H25zM26,2H27V3H26zM27,2H28V3H27zM28,2H29V3H28zM29,2H30V3H29zM30,2H31V3H30zM2,3H3V4H2zM8,3H9V4H8zM12,3H13V4H12zM13,3H14V4H13zM15,3H16V4H15zM16,3H17V4H16zM18,3H19V4H18zM20,3H21V4H20zM24,3H25V4H24zM30,3H31V4H30zM2,4H3V5H2zM4,4H5V5H4zM5,4H6V5H5zM6,4H7V5H6zM8,4H9V5H8zM10,4H11V5H10zM12,4H13V5H12zM14,4H15V5H14zM16,4H17V5H16zM17,4H18V5H17zM18,4H19V5H18zM19,4H20V5H19zM22,4H23V5H22zM24,4H25V5H24zM26,4H27V5H26zM27,4H28V5H27zM28,4H29V5H28zM30,4H31V5H30zM2,5H3V6H2zM4,5H5V6H4zM5,5H6V6H5zM6,5H7V6H6zM8,5H9V6H8zM11,5H12V6H11zM14,5H15V6H14zM16,5H17V6H16zM20,5H21V6H20zM22,5H23V6H22zM24,5H25V6H24zM26,5H27V6H26zM27,5H28V6H27zM28,5H29V6H28zM30,5H31V6H30zM2,6H3V7H2zM4,6H5V7H4zM5,6H6V7H5zM6,6H7V7H6zM8,6H9V7H8zM11,6H12V7H11zM13,6H14V7H13zM14,6H15V7H14zM15,6H16V7H15zM16,6H17V7H16zM17,6H18V7H17zM19,6H20V7H19zM20,6H21V7H20zM24,6H25V7H24zM26,6H27V7H26zM27,6H28V7H27zM28,6H29V7H28zM30,6H31V7H30zM2,7H3V8H2zM8,7H9V8H8zM10,7H11V8H10zM17,7H18V8H17zM19,7H20V8H19zM20,7H21V8H20zM24,7H25V8H24zM30,7H31V8H30zM2,8H3V9H2zM3,8H4V9H3zM4,8H5V9H4zM5,8H6V9H5zM6,8H7V9H6zM7,8H8V9H7zM8,8H9V9H8zM10,8H11V9H10zM12,8H13V9H12zM14,8H15V9H14zM16,8H17V9H16zM18,8H19V9H18zM20,8H21V9H20zM22,8H23V9H22zM24,8H25V9H24zM25,8H26V9H25zM26,8H27V9H26zM27,8H28V9H27zM28,8H29V9H28zM29,8H30V9H29zM30,8H31V9H30zM12,9H13V10H12zM13,9H14V10H13zM14,9H15V10H14zM16,9H17V10H16zM17,9H18V10H17zM18,9H19V10H18zM22,9H23V10H22zM2,10H3V11H2zM4,10H5V11H4zM8,10H9V11H8zM9,10H10V11H9zM11,10H12V11H11zM12,10H13V11H12zM13,10H14V11H13zM14,10H15V11H14zM15,10H16V11H15zM16,10H17V11H16zM20,10H21V11H20zM22,10H23V11H22zM25,10H26V11H25zM28,10H29V11H28zM30,10H31V11H30zM2,11H3V12H2zM3,11H4V12H3zM4,11H5V12H4zM10,11H11V12H10zM12,11H13V12H12zM13,11H14V12H13zM15,11H16V12H15zM16,11H17V12H16zM20,11H21V12H20zM22,11H23V12H22zM23,11H24V12H23zM24,11H25V12H24zM25,11H26V12H25zM29,11H30V12H29zM30,11H31V12H30zM5,12H6V13H5zM8,12H9V13H8zM11,12H12V13H11zM13,12H14V13H13zM17,12H18V13H17zM19,12H20V13H19zM21,12H22V13H21zM22,12H23V13H22zM24,12H25V13H24zM25,12H26V13H25zM26,12H27V13H26zM27,12H28V13H27zM28,12H29V13H28zM30,12H31V13H30zM2,13H3V14H2zM3,13H4V14H3zM4,13H5V14H4zM5,13H6V14H5zM6,13H7V14H6zM7,13H8V14H7zM10,13H11V14H10zM11,13H12V14H11zM12,13H13V14H12zM13,13H14V14H13zM15,13H16V14H15zM20,13H21V14H20zM22,13H23V14H22zM23,13H24V14H23zM25,13H26V14H25zM27,13H28V14H27zM3,14H4V15H3zM5,14H6V15H5zM6,14H7V15H6zM7,14H8V15H7zM8,14H9V15H8zM9,14H10V15H9zM11,14H12V15H11zM12,14H13V15H12zM14,14H15V15H14zM15,14H16V15H15zM17,14H18V15H17zM18,14H19V15H18zM19,14H20V15H19zM21,14H22V15H21zM23,14H24V15H23zM24,14H25V15H24zM30,14H31V15H30zM2,15H3V16H2zM3,15H4V16H3zM4,15H5V16H4zM6,15H7V16H6zM7,15H8V16H7zM9,15H10V16H9zM10,15H11V16H10zM12,15H13V16H12zM14,15H16V16H14zM18,15H19V16H18zM19,15H20V16H19zM22,15H23V16H22zM24,15H25V16H24zM25,15H26V16H25zM29,15H30V16H29zM30,15H31V16H30zM2,16H3V17H2zM4,16H5V17H4zM6,16H7V17H6zM7,16H8V17H7zM8,16H9V17H8zM12,16H13V17H12zM14,16H15V17H14zM15,16H16V17H15zM16,16H17V17H16zM18,16H19V17H18zM19,16H20V17H19zM21,16H22V17H21zM26,16H27V17H26zM30,16H31V17H30zM6,17H7V18H6zM7,17H8V18H7zM9,17H10V18H9zM11,17H12V18H11zM12,17H13V18H12zM13,17H14V18H13zM14,17H15V18H14zM16,17H17V18H16zM17,17H18V18H17zM18,17H19V18H18zM22,17H23V18H22zM24,17H25V18H24zM25,17H26V18H25zM2,18H3V19H2zM6,18H7V19H6zM7,18H8V19H7zM8,18H9V19H8zM9,18H10V19H9zM10,18H11V19H10zM11,18H12V19H11zM12,18H13V19H12zM13,18H14V19H13zM15,18H16V19H15zM16,18H17V19H16zM20,18H21V19H20zM22,18H23V19H22zM24,18H25V19H24zM30,18H31V19H30zM9,19H10V20H9zM10,19H11V20H10zM12,19H13V20H12zM13,19H14V20H13zM15,19H16V20H15zM16,19H17V20H16zM20,19H21V20H20zM21,19H22V20H21zM22,19H23V20H22zM24,19H25V20H24zM25,19H26V20H25zM28,19H29V20H28zM29,19H30V20H29zM30,19H31V20H30zM2,20H3V21H2zM3,20H4V21H3zM4,20H5V21H4zM5,20H6V21H5zM8,20H9V21H8zM12,20H13V21H12zM14,20H15V21H14zM17,20H18V21H17zM21,20H22V21H21zM23,20H24V21H23zM24,20H25V21H24zM27,20H28V21H27zM30,20H31V21H30zM4,21H5V22H4zM5,21H6V22H5zM6,21H7V22H6zM10,21H11V22H10zM12,21H13V22H12zM14,21H15V22H14zM15,21H16V22H15zM20,21H21V22H20zM22,21H23V22H22zM24,21H25V22H24zM25,21H26V22H25zM26,21H27V22H26zM2,22H3V23H2zM3,22H4V23H3zM4,22H5V23H4zM7,22H8V23H7zM8,22H9V23H8zM10,22H11V23H10zM13,22H14V23H13zM14,22H15V23H14zM15,22H16V23H15zM17,22H18V23H17zM18,22H19V23H18zM19,22H20V23H19zM21,22H22V23H21zM22,22H23V23H22zM23,22H24V23H23zM24,22H25V23H24zM25,22H26V23H25zM26,22H27V23H26zM27,22H28V23H27zM29,22H30V23H29zM10,23H11V24H10zM11,23H12V24H11zM12,23H13V24H12zM14,23H15V24H14zM18,23H19V24H18zM21,23H22V24H21zM22,23H23V24H22zM26,23H27V24H26zM27,23H28V24H27zM28,23H29V24H28zM30,23H31V24H30zM2,24H3V25H2zM3,24H4V25H3zM4,24H5V25H4zM5,24H6V25H5zM6,24H7V25H6zM7,24H8V25H7zM8,24H9V25H8zM10,24H11V25H10zM11,24H12V25H11zM12,24H13V25H12zM13,24H14V25H13zM15,24H16V25H15zM16,24H17V25H16zM18,24H19V25H18zM19,24H20V25H19zM20,24H21V25H20zM22,24H23V25H22zM24,24H25V25H24zM26,24H27V25H26zM30,24H31V25H30zM2,25H3V26H2zM8,25H9V26H8zM13,25H14V26H13zM16,25H17V26H16zM17,25H18V26H17zM18,25H19V26H18zM20,25H21V26H20zM21,25H22V26H21zM22,25H23V26H22zM26,25H27V26H26zM2,26H3V27H2zM4,26H5V27H4zM5,26H6V27H5zM6,26H7V27H6zM8,26H9V27H8zM11,26H12V27H11zM12,26H13V27H12zM15,26H16V27H15zM16,26H17V27H16zM19,26H20V27H19zM20,26H21V27H20zM21,26H22V27H21zM22,26H23V27H22zM23,26H24V27H23zM24,26H25V27H24zM25,26H26V27H25zM26,26H27V27H26zM27,26H28V27H27zM2,27H3V28H2zM4,27H5V28H4zM5,27H6V28H5zM6,27H7V28H6zM8,27H9V28H8zM13,27H14V28H13zM16,27H17V28H16zM19,27H20V28H19zM21,27H22V28H21zM22,27H23V28H22zM23,27H24V28H23zM26,27H27V28H26zM27,27H28V28H27zM28,27H29V28H28zM29,27H30V28H29zM2,28H3V29H2zM4,28H5V29H4zM5,28H6V29H5zM6,28H7V29H6zM8,28H9V29H8zM10,28H11V29H10zM13,28H14V29H13zM15,28H16V29H15zM17,28H18V29H17zM23,28H24V29H23zM26,28H27V29H26zM29,28H30V29H29zM30,28H31V29H30zM2,29H3V30H2zM8,29H9V30H8zM15,29H16V30H15zM19,29H20V30H19zM22,29H23V30H22zM23,29H24V30H23zM25,29H26V30H25zM27,29H28V30H27zM2,30H3V31H2zM3,30H4V31H3zM4,30H5V31H4zM5,30H6V31H5zM6,30H7V31H6zM7,30H8V31H7zM8,30H9V31H8zM10,30H11V31H10zM11,30H12V31H11zM12,30H13V31H12zM13,30H14V31H13zM17,30H18V31H17zM18,30H19V31H18zM19,30H20V31H19zM21,30H22V31H21zM22,30H23V31H22zM24,30H25V31H24zM25,30H26V31H25zM30,30H31V31H30z" fill="#202124" fill-rule="nonzero" stroke="none"/>
  </g>

  <!-- "Scan to watch demo" text under QR -->
  <text x="150" y="280" text-anchor="middle" font-family="Google Sans, Product Sans, Roboto, Arial, sans-serif" font-size="9" fill="#5f6368">Scan to watch demo</text>
</svg>
