<?xml version="1.0" encoding="UTF-8"?>
<svg xmlns="http://www.w3.org/2000/svg" viewBox="0 0 300 300" width="300" height="300">
  <defs>
    <linearGradient id="google-grad" x1="0%" y1="0%" x2="0%" y2="100%">
      <stop offset="0%" stop-color="#4285f4"/>
      <stop offset="33%" stop-color="#ea4335"/>
      <stop offset="66%" stop-color="#fbbc04"/>
      <stop offset="100%" stop-color="#34a853"/>
    </linearGradient>
  </defs>

  <!-- Sticker background circle -->
  <circle cx="150" cy="150" r="148" fill="white"/>

  <!-- Google 4-color border ring (blue=right, green=bottom, yellow=left, red=top) -->
  <path d="M254.65,45.35 A148,148 0 0,1 254.65,254.65" fill="none" stroke="#4285f4" stroke-width="4"/>
  <path d="M254.65,254.65 A148,148 0 0,1 45.35,254.65" fill="none" stroke="#34a853" stroke-width="4"/>
  <path d="M45.35,254.65 A148,148 0 0,1 45.35,45.35" fill="none" stroke="#fbbc04" stroke-width="4"/>
  <path d="M45.35,45.35 A148,148 0 0,1 254.65,45.35" fill="none" stroke="#ea4335" stroke-width="4"/>

  <!-- DNA helix icon in Google colors (centered, upper portion) -->
  <g transform="translate(115, 20) scale(0.14)">
    <path fill="url(#google-grad)" fill-rule="nonzero" d="M120.06,489.41c15.49 -21.5,23.23 -40.69,26.29 -61.04,1.91 -14.18,2.1 -29.3,1.34 -46.50l8.47,0.44,0 -0.05c5.73,0.40,10.99,0.41,16.85,1.12l0.56,0.02c0.6,17.81,0.41,33.17 -1.74,48.79 -3.98,24.37 -12.76,47.58 -31.16,72.40l-20.66 -15.39zm-45.5 -120.27l57.4,57.4 -4.75,23.08 -74.47 -74.31c-10.22,3.9 -19.92,9.48 -29.80,16.64l-15.59 -20.22c48.02 -36.43,99.65 -33.88,150.87 -30.84,6,0.30,12,0.32,16.42,0.96,20.46,1.1,40.57,1.16,60.19 -2.14l-51.41 -51.18,5 -23.15,69.08,68.71c13.82 -4.52,27.37 -11.44,39.88 -22.23l-96.59 -96.97c-17.47,18.79 -25.81,39.52 -28.77,61.67 -2.49,15.31 -2.19,31.38 -1.71,48.49l-9.67 -0.31c-0.34 -0.06 -1.26 -0.09 -1.76 -0.09 -4.82 -0.24 -9.23 -0.5 -13.92 -0.91 -0.89 -17.55 -0.49 -34.58,2.0 -51.04,4.0 -27.80,14.52 -53.5,37.30 -77.03,24.33 -25.45,50.19 -38.68,76.67 -45.22,21.48 -5.08,42.97 -6.38,64.24 -6.15,0.30,5.16,0.39,10.04,0.85,15.48,0.24,3.29,0.48,6.48,0.40,9.90 -16.60 -0.4 -32.63,0.02 -48.47,2.88l52.56,52.28 -5.01,23.03 -70.13 -70.27c-13.80,5.0 -27.71,12.03 -41.15,22.79l96.73,96.68c18.35 -19.50,26.24 -40.19,29.97 -63.19,3.63 -24.01,1.9 -49.29 -0.04 -76.14 -2.01 -30.38 -3.53 -55.32,0.2 -78.8,3.78 -24.42,12.55 -47.56,31.16 -72.06l20.94,15.5c-15.40,21.4 -23.29,40.44 -26.35,60.66 -3.53,21.14 -2.12,44.77,0.02,73.46,1.96,28.58,4.14,55.92 -0.16,82.05 -4.35,27.34 -14.75,53.26 -37.18,77.54 -24.01,25.45 -50.03,38.97 -77.19,45.56 -26.03,6.71 -52.65,6.54 -79.53,5.60 -6.39 -0.27 -11.3 -0.25 -16.66 -0.86 -27.79 -1.31 -56.29 -3.11 -82.93,2.98zm362.70 -226.1l-55.44 -55.35,4.95 -23.21,72.70,72.45c10.58 -3.76,21.54 -9.64,31.86 -17.39l15.83,20.65c-38.96,29.25 -80.04,33.10 -121.50,32.09 -0.35 -5.60 -0.96 -10.87 -1.21 -16.76 -0.22 -3.04 -0.43 -5.88 -0.67 -8.85,18.39,0.52,36.60,0.04,53.91 -3.45z"/>
  </g>

  <!-- Title text matching Cloud Run website typography -->
  <text x="150" y="120" text-anchor="middle" font-family="Google Sans Display, Google Sans, Noto Sans, Helvetica, Arial, sans-serif" font-size="36" font-weight="500" fill="#202124" letter-spacing="-0.3">FoldRun</text>

  <!-- Tagline with inline Google Cloud icon replacing "GCP" -->
  <text x="137" y="143" text-anchor="middle" font-family="Google Sans, Noto Sans, Helvetica, Arial, sans-serif" font-size="11" fill="#5f6368">Agentic Protein Folding on</text>
  <g transform="translate(205, 126) scale(0.19)">
    <path fill="#ea4535" d="M80.6 40.3h.4l-.2-.2 14-14v-.3c-11.8-10.4-28.1-14-43.2-9.5C36.5 20.8 24.9 32.8 20.7 48c.2-.1.5-.2.8-.2 5.2-3.4 11.4-5.4 17.9-5.4 2.2 0 4.3.2 6.4.6.1-.1.2-.1.3-.1 9-9.9 24.2-11.1 34.6-2.6h-.1z"/>
    <path fill="#557ebf" d="M108.1 47.8c-2.3-8.5-7.1-16.2-13.8-22.1L80 39.9c6 4.9 9.5 12.3 9.3 20v2.5c16.9 0 16.9 25.2 0 25.2H63.9v20h-.1l.1.2h25.4c14.6.1 27.5-9.3 31.8-23.1 4.3-13.8-1-28.8-13-36.9z"/>
    <path fill="#36a852" d="M39 107.9h26.3V87.7H39c-1.9 0-3.7-.4-5.4-1.1l-15.2 14.6v.2c6 4.3 13.2 6.6 20.7 6.6z"/>
    <path fill="#f9bc15" d="M40.2 41.9c-14.9.1-28.1 9.3-32.9 22.8-4.8 13.6 0 28.5 11.8 37.3l15.6-14.9c-8.6-3.7-10.6-14.5-4-20.8 6.6-6.4 17.8-4.4 21.7 3.8L68 55.2C61.4 46.9 51.1 42 40.2 42.1z"/>
  </g>

  <!-- QR Code (scaled and centered at bottom) -->
  <g transform="translate(97, 155) scale(3.636)">
    <path d="M2,2H3V3H2zM3,2H4V3H3zM4,2H5V3H4zM5,2H6V3H5zM6,2H7V3H6zM7,2H8V3H7zM8,2H9V3H8zM13,2H14V3H13zM16,2H17V3H16zM20,2H21V3H20zM21,2H22V3H21zM22,2H23V3H22zM23,2H24V3H23zM24,2H25V3H24zM25,2H26V3H25zM26,2H27V3H26zM2,3H3V4H2zM8,3H9V4H8zM10,3H11V4H10zM11,3H12V4H11zM12,3H13V4H12zM14,3H15V4H14zM15,3H16V4H15zM16,3H17V4H16zM20,3H21V4H20zM26,3H27V4H26zM2,4H3V5H2zM4,4H5V5H4zM5,4H6V5H5zM6,4H7V5H6zM8,4H9V5H8zM10,4H11V5H10zM11,4H12V5H11zM12,4H13V5H12zM13,4H14V5H13zM16,4H17V5H16zM18,4H19V5H18zM20,4H21V5H20zM22,4H23V5H22zM23,4H24V5H23zM24,4H25V5H24zM26,4H27V5H26zM2,5H3V6H2zM4,5H5V6H4zM5,5H6V6H5zM6,5H7V6H6zM8,5H9V6H8zM10,5H11V6H10zM11,5H12V6H11zM13,5H14V6H13zM14,5H15V6H14zM15,5H16V6H15zM18,5H19V6H18zM20,5H21V6H20zM22,5H23V6H22zM23,5H24V6H23zM24,5H25V6H24zM26,5H27V6H26zM2,6H3V7H2zM4,6H5V7H4zM5,6H6V7H5zM6,6H7V7H6zM8,6H9V7H8zM11,6H12V7H11zM15,6H16V7H15zM18,6H19V7H18zM20,6H21V7H20zM22,6H23V7H22zM23,6H24V7H23zM24,6H25V7H24zM26,6H27V7H26zM2,7H3V8H2zM8,7H9V8H8zM12,7H13V8H12zM13,7H14V8H13zM14,7H15V8H14zM16,7H17V8H16zM18,7H19V8H18zM20,7H21V8H20zM26,7H27V8H26zM2,8H3V9H2zM3,8H4V9H3zM4,8H5V9H4zM5,8H6V9H5zM6,8H7V9H6zM7,8H8V9H7zM8,8H9V9H8zM10,8H11V9H10zM12,8H13V9H12zM14,8H15V9H14zM16,8H17V9H16zM18,8H19V9H18zM20,8H21V9H20zM21,8H22V9H21zM22,8H23V9H22zM23,8H24V9H23zM24,8H25V9H24zM25,8H26V9H25zM26,8H27V9H26zM10,9H11V10H10zM11,9H12V10H11zM12,9H13V10H12zM17,9H18V10H17zM18,9H19V10H18zM2,10H3V11H2zM8,10H9V11H8zM10,10H11V11H10zM14,10H15V11H14zM15,10H16V11H15zM16,10H17V11H16zM19,10H20V11H19zM20,10H21V11H20zM23,10H24V11H23zM24,10H25V11H24zM25,10H26V11H25zM2,11H3V12H2zM4,11H5V12H4zM5,11H6V12H5zM6,11H7V12H6zM7,11H8V12H7zM9,11H10V12H9zM11,11H12V12H11zM14,11H15V12H14zM16,11H17V12H16zM17,11H18V12H17zM18,11H19V12H18zM21,11H22V12H21zM22,11H23V12H22zM23,11H24V12H23zM24,11H25V12H24zM25,11H26V12H25zM5,12H6V13H5zM8,12H9V13H8zM9,12H10V13H9zM12,12H13V13H12zM13,12H14V13H13zM16,12H17V13H16zM17,12H18V13H17zM18,12H19V13H18zM19,12H20V13H19zM21,12H22V13H21zM22,12H23V13H22zM23,12H24V13H23zM25,12H26V13H25zM26,12H27V13H26zM2,13H3V14H2zM4,13H5V14H4zM6,13H7V14H6zM7,13H8V14H7zM9,13H10V14H9zM13,13H14V14H13zM14,13H15V14H14zM18,13H19V14H18zM19,13H20V14H19zM21,13H22V14H21zM23,13H24V14H23zM26,13H27V14H26zM2,14H3V15H2zM5,14H6V15H5zM7,14H8V15H7zM8,14H9V15H8zM11,14H12V15H11zM14,14H15V15H14zM17,14H18V15H17zM18,14H19V15H18zM20,14H21V15H20zM21,14H22V15H21zM26,14H27V15H26zM2,15H3V16H2zM4,15H5V16H4zM6,15H7V16H6zM7,15H8V16H7zM9,15H10V16H9zM16,15H17V16H16zM17,15H18V16H17zM18,15H19V16H18zM21,15H22V16H21zM25,15H26V16H25zM2,16H3V17H2zM4,16H5V17H4zM5,16H6V17H5zM6,16H7V17H6zM8,16H9V17H8zM12,16H13V17H12zM13,16H14V17H13zM14,16H15V17H14zM15,16H16V17H15zM17,16H18V17H17zM19,16H20V17H19zM21,16H22V17H21zM22,16H23V17H22zM23,16H24V17H23zM25,16H26V17H25zM26,16H27V17H26zM2,17H3V18H2zM5,17H6V18H5zM6,17H7V18H6zM11,17H12V18H11zM13,17H14V18H13zM16,17H17V18H16zM19,17H20V18H19zM21,17H22V18H21zM23,17H24V18H23zM24,17H25V18H24zM26,17H27V18H26zM2,18H3V19H2zM4,18H5V19H4zM5,18H6V19H5zM8,18H9V19H8zM9,18H10V19H9zM10,18H11V19H10zM12,18H13V19H12zM13,18H14V19H13zM15,18H16V19H15zM16,18H17V19H16zM18,18H19V19H18zM19,18H20V19H19zM20,18H21V19H20zM21,18H22V19H21zM22,18H23V19H22zM24,18H25V19H24zM10,19H11V20H10zM12,19H13V20H12zM14,19H15V20H14zM16,19H17V20H16zM18,19H19V20H18zM22,19H23V20H22zM2,20H3V21H2zM3,20H4V21H3zM4,20H5V21H4zM5,20H6V21H5zM6,20H7V21H6zM7,20H8V21H7zM8,20H9V21H8zM12,20H13V21H12zM13,20H14V21H13zM15,20H16V21H15zM18,20H19V21H18zM20,20H21V21H20zM22,20H23V21H22zM26,20H27V21H26zM2,21H3V22H2zM8,21H9V22H8zM11,21H12V22H11zM12,21H13V22H12zM14,21H15V22H14zM16,21H17V22H16zM17,21H18V22H17zM18,21H19V22H18zM22,21H23V22H22zM25,21H26V22H25zM2,22H3V23H2zM4,22H5V23H4zM5,22H6V23H5zM6,22H7V23H6zM8,22H9V23H8zM11,22H12V23H11zM12,22H13V23H12zM14,22H15V23H14zM15,22H16V23H15zM16,22H17V23H16zM17,22H18V23H17zM18,22H19V23H18zM19,22H20V23H19zM20,22H21V23H20zM21,22H22V23H21zM22,22H23V23H22zM24,22H25V23H24zM25,22H26V23H25zM26,22H27V23H26zM2,23H3V24H2zM4,23H5V24H4zM5,23H6V24H5zM6,23H7V24H6zM8,23H9V24H8zM11,23H12V24H11zM12,23H13V24H12zM15,23H16V24H15zM16,23H17V24H16zM17,23H18V24H17zM20,23H21V24H20zM25,23H26V24H25zM26,23H27V24H26zM2,24H3V25H2zM4,24H5V25H4zM5,24H6V25H5zM6,24H7V25H6zM8,24H9V25H8zM11,24H12V25H11zM13,24H14V25H13zM14,24H15V25H14zM15,24H16V25H15zM16,24H17V25H16zM23,24H24V25H23zM24,24H25V25H24zM26,24H27V25H26zM2,25H3V26H2zM8,25H9V26H8zM12,25H13V26H12zM13,25H14V26H13zM18,25H19V26H18zM19,25H20V26H19zM21,25H22V26H21zM22,25H23V26H22zM26,25H27V26H26zM2,26H3V27H2zM3,26H4V27H3zM4,26H5V27H4zM5,26H6V27H5zM6,26H7V27H6zM7,26H8V27H7zM8,26H9V27H8zM10,26H11V27H10zM11,26H12V27H11zM14,26H15V27H14zM15,26H16V27H15zM16,26H17V27H16zM18,26H19V27H18zM19,26H20V27H19zM23,26H24V27H23zM26,26H27V27H26z" fill="#202124" fill-rule="nonzero" stroke="none"/>
  </g>

  <!-- Scan label -->
  <text x="150" y="280" text-anchor="middle" font-family="Google Sans, Noto Sans, Helvetica, Arial, sans-serif" font-size="9" fill="#5f6368">https://goo.gle/foldrun</text>
</svg>
